<?xml version="1.0" standalone="no"?>
<!DOCTYPE svg PUBLIC "-//W3C//DTD SVG 20010904//EN"
 "http://www.w3.org/TR/2001/REC-SVG-20010904/DTD/svg10.dtd">
<svg version="1.0" xmlns="http://www.w3.org/2000/svg"
 width="462.000000pt" height="431.000000pt" viewBox="0 0 462.000000 431.000000"
 preserveAspectRatio="xMidYMid meet">

<g transform="translate(0.000000,431.000000) scale(0.100000,-0.100000)"
fill="#000000" stroke="none">
<path d="M960 4250 c-460 -43 -829 -387 -905 -845 -14 -89 -16 -195 -13 -940
l3 -840 27 -95 c53 -191 132 -327 272 -465 134 -134 271 -213 461 -266 75 -21
105 -23 482 -28 402 -6 403 -6 425 -29 13 -12 133 -167 268 -344 274 -360 277
-364 361 -337 40 13 60 36 299 349 141 184 267 341 281 347 18 9 117 13 380
13 384 0 444 6 589 55 284 97 519 330 623 620 55 155 57 187 57 1070 0 670 -3
827 -15 896 -72 415 -378 731 -800 827 -62 14 -225 16 -1390 18 -726 1 -1358
-2 -1405 -6z m2829 -288 c260 -91 436 -280 501 -538 20 -78 20 -103 18 -940
l-3 -859 -28 -80 c-41 -115 -100 -209 -186 -296 -87 -87 -181 -146 -296 -186
l-80 -27 -410 -7 c-232 -3 -423 -10 -440 -16 -56 -19 -114 -53 -147 -86 -18
-18 -116 -142 -217 -275 -101 -134 -187 -245 -192 -247 -4 -3 -99 115 -211
262 -176 232 -211 272 -258 301 -30 18 -71 37 -90 44 -22 7 -187 13 -445 17
l-410 7 -80 28 c-249 87 -436 290 -495 540 -20 83 -21 109 -18 938 l3 853 31
88 c45 125 87 190 189 292 90 90 170 142 277 181 118 43 108 42 1533 41 l1360
-2 94 -33z"/>
<path d="M1344 2769 c-59 -17 -126 -71 -158 -129 -27 -48 -31 -65 -31 -130 1
-90 22 -138 89 -197 53 -46 101 -63 182 -63 146 1 254 116 254 269 0 169 -173
297 -336 250z"/>
<path d="M2229 2766 c-128 -45 -198 -149 -186 -275 6 -73 35 -128 91 -178 53
-46 101 -63 182 -63 71 0 125 23 176 75 51 52 71 99 76 178 4 58 0 75 -22 122
-60 121 -200 183 -317 141z"/>
<path d="M3110 2765 c-144 -46 -221 -219 -158 -356 49 -107 127 -158 241 -159
80 0 120 15 177 67 104 93 120 246 37 354 -67 87 -194 128 -297 94z"/>
</g>
</svg>
