<?xml version="1.0" standalone="no"?>
<!DOCTYPE svg PUBLIC "-//W3C//DTD SVG 20010904//EN"
 "http://www.w3.org/TR/2001/REC-SVG-20010904/DTD/svg10.dtd">
<svg version="1.0" xmlns="http://www.w3.org/2000/svg"
 width="346.000000pt" height="351.000000pt" viewBox="0 0 346.000000 351.000000"
 preserveAspectRatio="xMidYMid meet">

<g transform="translate(0.000000,351.000000) scale(0.100000,-0.100000)"
fill="#000000" stroke="none">
<path d="M1793 3448 c-28 -30 -30 -77 -5 -109 17 -20 31 -23 128 -30 376 -24
692 -170 944 -436 233 -245 360 -539 386 -896 8 -110 19 -133 71 -143 27 -5
37 -1 63 24 35 35 36 54 19 210 -83 767 -710 1366 -1464 1399 -117 5 -120 5
-142 -19z"/>
<path d="M460 3154 c-194 -51 -354 -210 -405 -404 -9 -35 -15 -103 -15 -185 0
-618 261 -1258 704 -1723 344 -361 794 -621 1269 -732 226 -53 585 -84 702
-60 192 39 359 188 426 380 27 78 31 249 8 313 l-14 39 -385 164 -385 165 -44
-23 c-74 -38 -173 -144 -216 -231 -21 -42 -39 -77 -40 -77 -18 0 -203 72 -278
108 -391 187 -696 488 -890 877 -51 102 -117 272 -117 298 0 7 32 27 71 45 79
37 198 146 236 217 l22 40 -168 390 -167 390 -44 12 c-62 16 -204 15 -270 -3z"/>
<path d="M1798 2970 c-36 -28 -38 -81 -5 -114 19 -19 37 -24 112 -29 159 -11
335 -71 461 -158 77 -53 179 -155 233 -234 96 -139 145 -277 161 -454 10 -113
21 -135 71 -146 35 -8 76 15 89 49 12 32 -5 202 -30 297 -60 231 -203 447
-392 589 -163 123 -380 205 -578 217 -87 5 -97 4 -122 -17z"/>
<path d="M1798 2490 c-22 -17 -28 -30 -28 -60 0 -48 35 -80 89 -80 20 0 64 -7
96 -15 175 -46 304 -197 324 -381 8 -67 13 -82 36 -101 34 -30 70 -29 100 2
65 64 4 301 -114 443 -96 115 -252 196 -403 208 -65 6 -76 4 -100 -16z"/>
</g>
</svg>
